# MagicaVoxel @ ephtracy

# material
mtllib Cim_nosib.mtl
usemtl palette

# normals
vn -1 0 0
vn 1 0 0
vn 0 0 1
vn 0 0 -1
vn 0 -1 0
vn 0 1 0

# texcoords
vt 0.00195313 0.5
vt 0.0332031 0.5
vt 0.255859 0.5
vt 0.849609 0.5
vt 0.857422 0.5
vt 0.865234 0.5
vt 0.947266 0.5
vt 0.994141 0.5

# verts
v -5 9 1.5
v -5 9 0.5
v -5 10 1.5
v -5 10 0.5
v -4 7 1.5
v -4 7 0.5
v -4 7 -0.5
v -4 7 -2.5
v -4 8 0.5
v -4 8 -0.5
v -4 8 -1.5
v -4 8 -2.5
v -4 9 2.5
v -4 9 1.5
v -4 9 0.5
v -4 9 -0.5
v -4 9 -1.5
v -4 10 2.5
v -4 10 1.5
v -4 10 0.5
v -4 10 -0.5
v -4 11 1.5
v -4 11 0.5
v -3 7 2.5
v -3 7 1.5
v -3 7 0.5
v -3 7 -0.5
v -3 8 3.5
v -3 8 2.5
v -3 8 0.5
v -3 8 -0.5
v -3 9 2.5
v -3 9 1.5
v -3 9 -0.5
v -3 9 -1.5
v -3 10 3.5
v -3 10 2.5
v -3 10 1.5
v -3 10 0.5
v -3 10 -0.5
v -3 11 2.5
v -3 11 1.5
v -3 11 0.5
v -3 11 -0.5
v -3 11 -1.5
v -3 12 1.5
v -3 12 -0.5
v -2 0 1.5
v -2 0 0.5
v -2 1 2.5
v -2 1 1.5
v -2 1 0.5
v -2 1 -0.5
v -2 3 2.5
v -2 3 -0.5
v -2 6 2.5
v -2 6 -0.5
v -2 6 -2.5
v -2 7 2.5
v -2 7 1.5
v -2 7 -0.5
v -2 7 -1.5
v -2 10 3.5
v -2 10 2.5
v -2 11 3.5
v -2 11 2.5
v -2 11 1.5
v -2 11 -0.5
v -2 11 -1.5
v -2 11 -2.5
v -2 12 2.5
v -2 12 1.5
v -2 12 -0.5
v -2 12 -1.5
v -2 13 1.5
v -2 13 -0.5
v -1 7 -2.5
v -1 7 -3.5
v -1 10 -2.5
v -1 10 -3.5
v 0 8 3.5
v 0 8 2.5
v 0 9 3.5
v 0 9 2.5
v 1 0 1.5
v 1 0 0.5
v 1 1 1.5
v 1 1 0.5
v 2 8 3.5
v 2 8 2.5
v 2 9 3.5
v 2 9 2.5
v 3 7 -1.5
v 3 7 -2.5
v 3 8 -1.5
v 3 8 -2.5
v 3 10 3.5
v 3 10 2.5
v 3 11 3.5
v 3 11 2.5
v -3 7 -1.5
v -3 7 -2.5
v -3 8 -1.5
v -3 8 -2.5
v -2 8 3.5
v -2 8 2.5
v -2 9 3.5
v -2 9 2.5
v -1 0 1.5
v -1 0 0.5
v -1 1 1.5
v -1 1 0.5
v 1 7 -2.5
v 1 7 -3.5
v 1 8 3.5
v 1 8 2.5
v 1 9 3.5
v 1 9 2.5
v 1 10 -2.5
v 1 10 -3.5
v 2 0 1.5
v 2 0 0.5
v 2 1 2.5
v 2 1 1.5
v 2 1 0.5
v 2 1 -0.5
v 2 3 2.5
v 2 3 -0.5
v 2 6 2.5
v 2 6 -0.5
v 2 6 -2.5
v 2 7 2.5
v 2 7 1.5
v 2 7 0.5
v 2 7 -0.5
v 2 7 -1.5
v 2 8 0.5
v 2 8 -0.5
v 2 9 -1.5
v 2 10 3.5
v 2 10 2.5
v 2 10 -1.5
v 2 10 -2.5
v 2 11 3.5
v 2 11 2.5
v 2 11 1.5
v 2 11 -0.5
v 2 11 -1.5
v 2 11 -2.5
v 2 12 2.5
v 2 12 1.5
v 2 12 -0.5
v 2 12 -1.5
v 2 13 1.5
v 2 13 -0.5
v 3 7 2.5
v 3 7 1.5
v 3 8 3.5
v 3 8 2.5
v 3 8 1.5
v 3 9 3.5
v 3 9 2.5
v 3 9 1.5
v 3 9 -0.5
v 3 9 -1.5
v 3 10 3.5
v 3 10 2.5
v 3 10 1.5
v 3 11 2.5
v 3 11 1.5
v 3 11 -0.5
v 3 11 -1.5
v 3 12 1.5
v 3 12 -0.5
v 4 7 1.5
v 4 7 0.5
v 4 7 -0.5
v 4 7 -2.5
v 4 8 0.5
v 4 8 -0.5
v 4 8 -1.5
v 4 8 -2.5
v 4 9 2.5
v 4 9 1.5
v 4 9 0.5
v 4 9 -0.5
v 4 9 -1.5
v 4 10 3.5
v 4 10 2.5
v 4 10 1.5
v 4 10 0.5
v 4 11 3.5
v 4 11 2.5
v 4 11 1.5
v 4 11 -0.5
v 5 9 1.5
v 5 9 0.5
v 5 10 1.5
v 5 10 0.5
v -3 8 3.5
v -3 10 3.5
v -2 8 3.5
v -2 9 3.5
v -2 10 3.5
v -2 11 3.5
v 0 8 3.5
v 0 9 3.5
v 1 8 3.5
v 1 9 3.5
v 1 10 3.5
v 1 11 3.5
v 2 8 3.5
v 2 9 3.5
v 2 10 3.5
v 2 11 3.5
v 3 8 3.5
v 3 9 3.5
v 3 10 3.5
v 3 11 3.5
v 4 10 3.5
v 4 11 3.5
v -4 9 2.5
v -4 10 2.5
v -3 7 2.5
v -3 8 2.5
v -3 9 2.5
v -3 10 2.5
v -3 11 2.5
v -2 1 2.5
v -2 3 2.5
v -2 6 2.5
v -2 7 2.5
v -2 8 2.5
v -2 9 2.5
v -2 10 2.5
v -2 11 2.5
v -2 12 2.5
v -1 4 2.5
v -1 5 2.5
v -1 7 2.5
v -1 8 2.5
v -1 9 2.5
v 0 3 2.5
v 0 4 2.5
v 0 5 2.5
v 0 8 2.5
v 0 9 2.5
v 1 3 2.5
v 1 4 2.5
v 1 7 2.5
v 1 8 2.5
v 1 9 2.5
v 1 11 2.5
v 1 12 2.5
v 2 1 2.5
v 2 3 2.5
v 2 6 2.5
v 2 7 2.5
v 2 8 2.5
v 2 9 2.5
v 2 10 2.5
v 2 11 2.5
v 2 12 2.5
v 3 7 2.5
v 3 8 2.5
v 3 9 2.5
v 3 10 2.5
v 3 11 2.5
v 4 9 2.5
v 4 10 2.5
v -5 9 1.5
v -5 10 1.5
v -4 7 1.5
v -4 9 1.5
v -4 10 1.5
v -4 11 1.5
v -3 7 1.5
v -3 9 1.5
v -3 10 1.5
v -3 11 1.5
v -3 12 1.5
v -2 0 1.5
v -2 1 1.5
v -2 11 1.5
v -2 12 1.5
v -2 13 1.5
v -1 0 1.5
v -1 1 1.5
v -1 12 1.5
v -1 13 1.5
v 1 0 1.5
v 1 1 1.5
v 1 12 1.5
v 2 0 1.5
v 2 1 1.5
v 2 11 1.5
v 2 12 1.5
v 2 13 1.5
v 3 7 1.5
v 3 8 1.5
v 3 9 1.5
v 3 10 1.5
v 3 11 1.5
v 3 12 1.5
v 4 7 1.5
v 4 9 1.5
v 4 10 1.5
v 4 11 1.5
v 5 9 1.5
v 5 10 1.5
v -4 7 -0.5
v -4 8 -0.5
v -3 7 -0.5
v -3 8 -0.5
v 2 7 -0.5
v 2 8 -0.5
v 3 8 -0.5
v 4 7 -0.5
v 4 8 -0.5
v 3 10 2.5
v 3 11 2.5
v 4 10 2.5
v 4 11 2.5
v -5 9 0.5
v -5 10 0.5
v -4 7 0.5
v -4 8 0.5
v -4 9 0.5
v -4 10 0.5
v -4 11 0.5
v -3 7 0.5
v -3 8 0.5
v -3 10 0.5
v -3 11 0.5
v -2 0 0.5
v -2 1 0.5
v -1 0 0.5
v -1 1 0.5
v 1 0 0.5
v 1 1 0.5
v 2 0 0.5
v 2 1 0.5
v 2 7 0.5
v 2 8 0.5
v 3 8 0.5
v 4 7 0.5
v 4 8 0.5
v 4 9 0.5
v 4 10 0.5
v 5 9 0.5
v 5 10 0.5
v -4 9 -0.5
v -4 10 -0.5
v -3 9 -0.5
v -3 10 -0.5
v -3 11 -0.5
v -3 12 -0.5
v -2 1 -0.5
v -2 3 -0.5
v -2 6 -0.5
v -2 11 -0.5
v -2 12 -0.5
v -2 13 -0.5
v -1 4 -0.5
v -1 5 -0.5
v -1 6 -0.5
v 0 3 -0.5
v 0 4 -0.5
v 0 5 -0.5
v 0 12 -0.5
v 0 13 -0.5
v 1 3 -0.5
v 1 4 -0.5
v 1 6 -0.5
v 2 1 -0.5
v 2 3 -0.5
v 2 6 -0.5
v 2 11 -0.5
v 2 12 -0.5
v 2 13 -0.5
v 3 9 -0.5
v 3 11 -0.5
v 3 12 -0.5
v 4 9 -0.5
v 4 11 -0.5
v -4 8 -1.5
v -4 9 -1.5
v -3 7 -1.5
v -3 8 -1.5
v -3 9 -1.5
v -3 11 -1.5
v -2 7 -1.5
v -2 11 -1.5
v -2 12 -1.5
v 0 11 -1.5
v 0 12 -1.5
v 2 7 -1.5
v 2 9 -1.5
v 2 10 -1.5
v 2 11 -1.5
v 2 12 -1.5
v 3 7 -1.5
v 3 8 -1.5
v 3 9 -1.5
v 3 11 -1.5
v 4 8 -1.5
v 4 9 -1.5
v -4 7 -2.5
v -4 8 -2.5
v -3 7 -2.5
v -3 8 -2.5
v -2 6 -2.5
v -2 11 -2.5
v -1 7 -2.5
v -1 10 -2.5
v 0 10 -2.5
v 0 11 -2.5
v 1 7 -2.5
v 1 10 -2.5
v 2 6 -2.5
v 2 10 -2.5
v 2 11 -2.5
v 3 7 -2.5
v 3 8 -2.5
v 4 7 -2.5
v 4 8 -2.5
v -1 7 -3.5
v -1 10 -3.5
v 1 7 -3.5
v 1 10 -3.5
v -2 0 1.5
v -1 0 1.5
v 1 0 1.5
v 2 0 1.5
v -2 0 0.5
v -1 0 0.5
v 1 0 0.5
v 2 0 0.5
v -2 1 2.5
v 2 1 2.5
v -2 1 1.5
v -1 1 1.5
v 1 1 1.5
v 2 1 1.5
v -2 1 0.5
v -1 1 0.5
v 1 1 0.5
v 2 1 0.5
v -2 1 -0.5
v 2 1 -0.5
v -2 6 -0.5
v -1 6 -0.5
v 1 6 -0.5
v 2 6 -0.5
v -1 6 -1.5
v 1 6 -1.5
v -2 6 -2.5
v 2 6 -2.5
v -3 7 2.5
v -2 7 2.5
v 2 7 2.5
v 3 7 2.5
v -4 7 1.5
v -3 7 1.5
v -2 7 1.5
v 2 7 1.5
v 3 7 1.5
v 4 7 1.5
v -4 7 0.5
v -3 7 0.5
v 2 7 0.5
v 4 7 0.5
v -4 7 -0.5
v -3 7 -0.5
v -2 7 -0.5
v 2 7 -0.5
v 4 7 -0.5
v -3 7 -1.5
v -2 7 -1.5
v 2 7 -1.5
v 3 7 -1.5
v -4 7 -2.5
v -3 7 -2.5
v -1 7 -2.5
v 1 7 -2.5
v 3 7 -2.5
v 4 7 -2.5
v -1 7 -3.5
v 1 7 -3.5
v -3 8 3.5
v -2 8 3.5
v 0 8 3.5
v 1 8 3.5
v 2 8 3.5
v 3 8 3.5
v -3 8 2.5
v -2 8 2.5
v 0 8 2.5
v 1 8 2.5
v 2 8 2.5
v 3 8 2.5
v -4 8 0.5
v -3 8 0.5
v 2 8 0.5
v 3 8 0.5
v 4 8 0.5
v -4 8 -0.5
v -3 8 -0.5
v 2 8 -0.5
v 3 8 -0.5
v 4 8 -0.5
v -2 9 3.5
v 0 9 3.5
v 1 9 3.5
v 2 9 3.5
v -4 9 2.5
v -3 9 2.5
v -2 9 2.5
v -1 9 2.5
v 0 9 2.5
v 1 9 2.5
v 2 9 2.5
v 3 9 2.5
v 4 9 2.5
v -5 9 1.5
v -4 9 1.5
v -3 9 1.5
v 3 9 1.5
v 4 9 1.5
v 5 9 1.5
v -5 9 0.5
v -4 9 0.5
v 4 9 0.5
v 5 9 0.5
v 3 10 3.5
v 4 10 3.5
v 3 10 2.5
v 4 10 2.5
v -4 8 -1.5
v -3 8 -1.5
v 3 8 -1.5
v 4 8 -1.5
v -4 8 -2.5
v -3 8 -2.5
v 3 8 -2.5
v 4 8 -2.5
v -4 9 -0.5
v -3 9 -0.5
v 3 9 -0.5
v 4 9 -0.5
v -4 9 -1.5
v -3 9 -1.5
v 3 9 -1.5
v 4 9 -1.5
v -3 10 3.5
v -2 10 3.5
v 2 10 3.5
v 3 10 3.5
v -4 10 2.5
v -3 10 2.5
v -2 10 2.5
v 2 10 2.5
v 3 10 2.5
v 4 10 2.5
v -5 10 1.5
v -4 10 1.5
v -3 10 1.5
v 3 10 1.5
v 4 10 1.5
v 5 10 1.5
v -5 10 0.5
v -4 10 0.5
v -3 10 0.5
v 4 10 0.5
v 5 10 0.5
v -4 10 -0.5
v -3 10 -0.5
v -1 10 -2.5
v 0 10 -2.5
v 1 10 -2.5
v -1 10 -3.5
v 1 10 -3.5
v -2 11 3.5
v 1 11 3.5
v 2 11 3.5
v 3 11 3.5
v 4 11 3.5
v -3 11 2.5
v -2 11 2.5
v 1 11 2.5
v 2 11 2.5
v 3 11 2.5
v 4 11 2.5
v -4 11 1.5
v -3 11 1.5
v -2 11 1.5
v 2 11 1.5
v 3 11 1.5
v 4 11 1.5
v -4 11 0.5
v -3 11 0.5
v -3 11 -0.5
v -2 11 -0.5
v 2 11 -0.5
v 3 11 -0.5
v 4 11 -0.5
v -3 11 -1.5
v -2 11 -1.5
v 0 11 -1.5
v 2 11 -1.5
v 3 11 -1.5
v -2 11 -2.5
v 0 11 -2.5
v 2 11 -2.5
v -2 12 2.5
v 1 12 2.5
v 2 12 2.5
v -3 12 1.5
v -2 12 1.5
v -1 12 1.5
v 1 12 1.5
v 2 12 1.5
v 3 12 1.5
v -3 12 -0.5
v -2 12 -0.5
v 0 12 -0.5
v 2 12 -0.5
v 3 12 -0.5
v -2 12 -1.5
v 0 12 -1.5
v 2 12 -1.5
v -2 13 1.5
v -1 13 1.5
v 2 13 1.5
v -1 13 0.5
v 0 13 0.5
v -2 13 -0.5
v 0 13 -0.5
v 2 13 -0.5

# faces
f 3/5/1 2/5/1 1/5/1
f 4/5/1 2/5/1 3/5/1
f 9/5/1 6/5/1 5/5/1
f 10/5/1 8/5/1 7/5/1
f 11/5/1 8/5/1 10/5/1
f 12/5/1 8/5/1 11/5/1
f 14/5/1 9/5/1 5/5/1
f 14/5/1 10/5/1 9/5/1
f 14/5/1 11/5/1 10/5/1
f 15/5/1 11/5/1 14/5/1
f 16/5/1 11/5/1 15/5/1
f 17/5/1 11/5/1 16/5/1
f 18/4/1 14/4/1 13/4/1
f 19/4/1 14/4/1 18/4/1
f 20/5/1 16/5/1 15/5/1
f 21/5/1 16/5/1 20/5/1
f 22/5/1 20/5/1 19/5/1
f 23/5/1 20/5/1 22/5/1
f 29/4/1 25/4/1 24/4/1
f 30/5/1 27/5/1 26/5/1
f 31/5/1 27/5/1 30/5/1
f 32/4/1 29/4/1 28/4/1
f 32/4/1 25/4/1 29/4/1
f 33/4/1 25/4/1 32/4/1
f 36/4/1 32/4/1 28/4/1
f 37/4/1 32/4/1 36/4/1
f 40/5/1 35/5/1 34/5/1
f 41/4/1 38/4/1 37/4/1
f 42/4/1 38/4/1 41/4/1
f 43/5/1 40/5/1 39/5/1
f 44/5/1 35/5/1 40/5/1
f 44/5/1 40/5/1 43/5/1
f 45/5/1 35/5/1 44/5/1
f 46/5/1 43/5/1 42/5/1
f 46/5/1 44/5/1 43/5/1
f 47/5/1 44/5/1 46/5/1
f 51/3/1 49/3/1 48/3/1
f 52/3/1 49/3/1 51/3/1
f 54/3/1 51/3/1 50/3/1
f 54/3/1 53/3/1 52/3/1
f 54/3/1 52/3/1 51/3/1
f 55/3/1 53/3/1 54/3/1
f 56/1/1 55/1/1 54/1/1
f 57/1/1 55/1/1 56/1/1
f 59/2/1 57/2/1 56/2/1
f 60/2/1 57/2/1 59/2/1
f 61/5/1 58/5/1 57/5/1
f 61/2/1 57/2/1 60/2/1
f 62/5/1 58/5/1 61/5/1
f 65/5/1 64/5/1 63/5/1
f 66/5/1 64/5/1 65/5/1
f 69/5/1 58/5/1 62/5/1
f 70/5/1 58/5/1 69/5/1
f 71/5/1 67/5/1 66/5/1
f 72/5/1 67/5/1 71/5/1
f 73/5/1 69/5/1 68/5/1
f 74/5/1 69/5/1 73/5/1
f 75/5/1 73/5/1 72/5/1
f 76/5/1 73/5/1 75/5/1
f 79/5/1 78/5/1 77/5/1
f 80/5/1 78/5/1 79/5/1
f 83/4/1 82/4/1 81/4/1
f 84/4/1 82/4/1 83/4/1
f 87/3/1 86/3/1 85/3/1
f 88/3/1 86/3/1 87/3/1
f 91/4/1 90/4/1 89/4/1
f 92/4/1 90/4/1 91/4/1
f 95/5/1 94/5/1 93/5/1
f 96/5/1 94/5/1 95/5/1
f 99/6/1 98/6/1 97/6/1
f 100/6/1 98/6/1 99/6/1
f 101/5/2 102/5/2 103/5/2
f 103/5/2 102/5/2 104/5/2
f 105/4/2 106/4/2 107/4/2
f 107/4/2 106/4/2 108/4/2
f 109/3/2 110/3/2 111/3/2
f 111/3/2 110/3/2 112/3/2
f 115/4/2 116/4/2 117/4/2
f 117/4/2 116/4/2 118/4/2
f 113/5/2 114/5/2 119/5/2
f 119/5/2 114/5/2 120/5/2
f 121/3/2 122/3/2 124/3/2
f 124/3/2 122/3/2 125/3/2
f 123/3/2 124/3/2 127/3/2
f 125/3/2 126/3/2 127/3/2
f 124/3/2 125/3/2 127/3/2
f 127/3/2 126/3/2 128/3/2
f 127/1/2 128/1/2 129/1/2
f 129/1/2 128/1/2 130/1/2
f 129/2/2 130/2/2 132/2/2
f 132/2/2 130/2/2 133/2/2
f 133/2/2 130/2/2 134/2/2
f 130/5/2 131/5/2 135/5/2
f 134/2/2 130/2/2 135/2/2
f 135/5/2 131/5/2 136/5/2
f 134/5/2 135/5/2 137/5/2
f 137/5/2 135/5/2 138/5/2
f 136/5/2 131/5/2 139/5/2
f 139/5/2 131/5/2 142/5/2
f 142/5/2 131/5/2 143/5/2
f 140/6/2 141/6/2 144/6/2
f 144/6/2 141/6/2 145/6/2
f 142/6/2 143/6/2 148/6/2
f 148/6/2 143/6/2 149/6/2
f 145/6/2 146/6/2 150/6/2
f 150/6/2 146/6/2 151/6/2
f 147/6/2 148/6/2 152/6/2
f 152/6/2 148/6/2 153/6/2
f 151/6/2 152/6/2 154/6/2
f 154/6/2 152/6/2 155/6/2
f 156/4/2 157/4/2 159/4/2
f 159/4/2 157/4/2 160/4/2
f 158/4/2 159/4/2 161/4/2
f 159/6/2 160/6/2 162/6/2
f 161/4/2 159/4/2 162/4/2
f 162/6/2 160/6/2 163/6/2
f 161/6/2 162/6/2 166/6/2
f 166/6/2 162/6/2 167/6/2
f 167/6/2 168/6/2 169/6/2
f 169/6/2 168/6/2 170/6/2
f 164/6/2 165/6/2 171/6/2
f 171/6/2 165/6/2 172/6/2
f 170/6/2 171/6/2 173/6/2
f 173/6/2 171/6/2 174/6/2
f 175/6/2 176/6/2 179/6/2
f 177/5/2 178/5/2 180/5/2
f 180/5/2 178/5/2 181/5/2
f 181/5/2 178/5/2 182/5/2
f 175/6/2 179/6/2 184/6/2
f 179/6/2 180/6/2 184/6/2
f 184/6/2 180/6/2 185/6/2
f 180/5/2 181/5/2 186/5/2
f 185/6/2 180/6/2 186/6/2
f 186/5/2 181/5/2 187/5/2
f 183/6/2 184/6/2 189/6/2
f 189/6/2 184/6/2 190/6/2
f 185/6/2 186/6/2 191/6/2
f 188/6/2 189/6/2 192/6/2
f 192/6/2 189/6/2 193/6/2
f 190/6/2 191/6/2 194/6/2
f 191/6/2 186/6/2 195/6/2
f 194/6/2 191/6/2 195/6/2
f 196/6/2 197/6/2 198/6/2
f 198/6/2 197/6/2 199/6/2
f 202/4/3 201/4/3 200/4/3
f 203/4/3 201/4/3 202/4/3
f 204/4/3 201/4/3 203/4/3
f 207/4/3 204/4/3 203/4/3
f 208/4/3 207/4/3 206/4/3
f 209/4/3 204/4/3 207/4/3
f 209/4/3 207/4/3 208/4/3
f 210/5/3 205/5/3 204/5/3
f 210/4/3 204/4/3 209/4/3
f 211/5/3 205/5/3 210/5/3
f 213/4/3 210/4/3 209/4/3
f 214/6/3 211/6/3 210/6/3
f 214/4/3 210/4/3 213/4/3
f 215/6/3 211/6/3 214/6/3
f 216/4/3 213/4/3 212/4/3
f 217/6/3 214/6/3 213/6/3
f 217/4/3 213/4/3 216/4/3
f 218/6/3 214/6/3 217/6/3
f 220/6/3 219/6/3 218/6/3
f 221/6/3 219/6/3 220/6/3
f 226/4/3 223/4/3 222/4/3
f 227/4/3 223/4/3 226/4/3
f 232/4/3 225/4/3 224/4/3
f 233/4/3 225/4/3 232/4/3
f 235/4/3 228/4/3 227/4/3
f 236/4/3 228/4/3 235/4/3
f 238/1/3 231/1/3 230/1/3
f 239/1/3 231/1/3 238/1/3
f 240/2/3 232/2/3 231/2/3
f 240/8/3 233/8/3 232/8/3
f 241/4/3 234/4/3 233/4/3
f 241/8/3 233/8/3 240/8/3
f 242/4/3 234/4/3 241/4/3
f 243/3/3 230/3/3 229/3/3
f 243/1/3 238/1/3 230/1/3
f 244/7/3 239/7/3 238/7/3
f 244/1/3 238/1/3 243/1/3
f 245/1/3 231/1/3 239/1/3
f 245/7/3 239/7/3 244/7/3
f 246/2/3 242/2/3 241/2/3
f 246/2/3 241/2/3 240/2/3
f 247/2/3 242/2/3 246/2/3
f 248/7/3 244/7/3 243/7/3
f 248/3/3 243/3/3 229/3/3
f 249/1/3 245/1/3 244/1/3
f 249/7/3 244/7/3 248/7/3
f 250/2/3 240/2/3 231/2/3
f 250/2/3 246/2/3 240/2/3
f 251/2/3 246/2/3 250/2/3
f 253/5/3 237/5/3 236/5/3
f 254/5/3 237/5/3 253/5/3
f 255/3/3 248/3/3 229/3/3
f 256/1/3 249/1/3 248/1/3
f 256/3/3 248/3/3 255/3/3
f 257/1/3 245/1/3 249/1/3
f 257/1/3 249/1/3 256/1/3
f 257/2/3 250/2/3 231/2/3
f 257/1/3 231/1/3 245/1/3
f 258/8/3 251/8/3 250/8/3
f 258/2/3 250/2/3 257/2/3
f 259/2/3 252/2/3 251/2/3
f 259/8/3 251/8/3 258/8/3
f 260/2/3 252/2/3 259/2/3
f 262/6/3 254/6/3 253/6/3
f 263/6/3 254/6/3 262/6/3
f 264/4/3 259/4/3 258/4/3
f 265/4/3 259/4/3 264/4/3
f 267/6/3 262/6/3 261/6/3
f 268/6/3 262/6/3 267/6/3
f 269/6/3 267/6/3 266/6/3
f 270/6/3 267/6/3 269/6/3
f 274/5/3 272/5/3 271/5/3
f 275/5/3 272/5/3 274/5/3
f 277/5/3 274/5/3 273/5/3
f 278/5/3 274/5/3 277/5/3
f 279/5/3 276/5/3 275/5/3
f 280/5/3 276/5/3 279/5/3
f 284/5/3 281/5/3 280/5/3
f 285/5/3 281/5/3 284/5/3
f 287/3/3 283/3/3 282/3/3
f 288/3/3 283/3/3 287/3/3
f 289/5/3 286/5/3 285/5/3
f 290/5/3 286/5/3 289/5/3
f 293/6/3 290/6/3 289/6/3
f 294/3/3 292/3/3 291/3/3
f 295/3/3 292/3/3 294/3/3
f 297/6/3 290/6/3 293/6/3
f 298/6/3 290/6/3 297/6/3
f 303/6/3 297/6/3 296/6/3
f 304/6/3 297/6/3 303/6/3
f 305/6/3 301/6/3 300/6/3
f 305/6/3 300/6/3 299/6/3
f 306/6/3 301/6/3 305/6/3
f 307/6/3 303/6/3 302/6/3
f 308/6/3 303/6/3 307/6/3
f 309/6/3 307/6/3 306/6/3
f 310/6/3 307/6/3 309/6/3
f 313/5/3 312/5/3 311/5/3
f 314/5/3 312/5/3 313/5/3
f 317/5/3 316/5/3 315/5/3
f 318/5/3 317/5/3 315/5/3
f 319/5/3 317/5/3 318/5/3
f 320/6/4 321/6/4 322/6/4
f 322/6/4 321/6/4 323/6/4
f 324/5/4 325/5/4 328/5/4
f 328/5/4 325/5/4 329/5/4
f 326/5/4 327/5/4 331/5/4
f 331/5/4 327/5/4 332/5/4
f 329/5/4 330/5/4 333/5/4
f 333/5/4 330/5/4 334/5/4
f 335/3/4 336/3/4 337/3/4
f 337/3/4 336/3/4 338/3/4
f 339/3/4 340/3/4 341/3/4
f 341/3/4 340/3/4 342/3/4
f 343/6/4 344/6/4 345/6/4
f 343/6/4 345/6/4 346/6/4
f 346/6/4 345/6/4 347/6/4
f 348/6/4 349/6/4 350/6/4
f 350/6/4 349/6/4 351/6/4
f 352/5/4 353/5/4 354/5/4
f 354/5/4 353/5/4 355/5/4
f 356/5/4 357/5/4 361/5/4
f 361/5/4 357/5/4 362/5/4
f 359/1/4 360/1/4 364/1/4
f 364/1/4 360/1/4 365/1/4
f 365/1/4 360/1/4 366/1/4
f 358/3/4 359/3/4 367/3/4
f 359/1/4 364/1/4 367/1/4
f 364/7/4 365/7/4 368/7/4
f 367/1/4 364/1/4 368/1/4
f 365/1/4 366/1/4 369/1/4
f 368/7/4 365/7/4 369/7/4
f 362/5/4 363/5/4 370/5/4
f 370/5/4 363/5/4 371/5/4
f 367/7/4 368/7/4 372/7/4
f 358/3/4 367/3/4 372/3/4
f 368/1/4 369/1/4 373/1/4
f 372/7/4 368/7/4 373/7/4
f 369/1/4 366/1/4 374/1/4
f 373/1/4 369/1/4 374/1/4
f 358/3/4 372/3/4 375/3/4
f 372/1/4 373/1/4 376/1/4
f 375/3/4 372/3/4 376/3/4
f 373/1/4 374/1/4 376/1/4
f 376/1/4 374/1/4 377/1/4
f 370/6/4 371/6/4 379/6/4
f 379/6/4 371/6/4 380/6/4
f 378/6/4 379/6/4 382/6/4
f 382/6/4 379/6/4 383/6/4
f 381/6/4 382/6/4 384/6/4
f 384/6/4 382/6/4 385/6/4
f 386/5/4 387/5/4 389/5/4
f 389/5/4 387/5/4 390/5/4
f 388/5/4 389/5/4 392/5/4
f 390/5/4 391/5/4 392/5/4
f 389/5/4 390/5/4 392/5/4
f 392/5/4 391/5/4 393/5/4
f 393/5/4 394/5/4 395/5/4
f 395/5/4 394/5/4 396/5/4
f 395/6/4 396/6/4 400/6/4
f 400/6/4 396/6/4 401/6/4
f 397/5/4 398/5/4 402/5/4
f 402/5/4 398/5/4 403/5/4
f 398/6/4 399/6/4 404/6/4
f 403/5/4 398/5/4 404/5/4
f 399/6/4 400/6/4 404/6/4
f 404/6/4 400/6/4 405/6/4
f 403/5/4 404/5/4 406/5/4
f 406/5/4 404/5/4 407/5/4
f 408/5/4 409/5/4 410/5/4
f 410/5/4 409/5/4 411/5/4
f 412/5/4 413/5/4 414/5/4
f 414/5/4 413/5/4 415/5/4
f 415/5/4 413/5/4 416/5/4
f 416/5/4 413/5/4 417/5/4
f 412/5/4 414/5/4 418/5/4
f 416/6/4 417/6/4 419/6/4
f 412/5/4 418/5/4 420/5/4
f 418/5/4 419/5/4 420/5/4
f 419/6/4 417/6/4 421/6/4
f 420/5/4 419/5/4 421/5/4
f 421/6/4 417/6/4 422/6/4
f 423/5/4 424/5/4 425/5/4
f 425/5/4 424/5/4 426/5/4
f 427/5/4 428/5/4 429/5/4
f 429/5/4 428/5/4 430/5/4
f 435/3/5 432/3/5 431/3/5
f 436/3/5 432/3/5 435/3/5
f 437/3/5 434/3/5 433/3/5
f 438/3/5 434/3/5 437/3/5
f 441/3/5 440/3/5 439/3/5
f 442/3/5 440/3/5 441/3/5
f 443/3/5 440/3/5 442/3/5
f 444/3/5 440/3/5 443/3/5
f 446/3/5 443/3/5 442/3/5
f 447/3/5 443/3/5 446/3/5
f 449/3/5 446/3/5 445/3/5
f 449/3/5 448/3/5 447/3/5
f 449/3/5 447/3/5 446/3/5
f 450/3/5 448/3/5 449/3/5
f 455/5/5 452/5/5 451/5/5
f 455/2/5 453/2/5 452/2/5
f 456/5/5 454/5/5 453/5/5
f 456/2/5 453/2/5 455/2/5
f 457/5/5 455/5/5 451/5/5
f 457/5/5 456/5/5 455/5/5
f 458/5/5 454/5/5 456/5/5
f 458/5/5 456/5/5 457/5/5
f 464/4/5 460/4/5 459/4/5
f 465/4/5 460/4/5 464/4/5
f 466/4/5 462/4/5 461/4/5
f 467/4/5 462/4/5 466/4/5
f 469/5/5 465/5/5 464/5/5
f 469/5/5 464/5/5 463/5/5
f 470/5/5 465/5/5 469/5/5
f 471/6/5 468/6/5 467/6/5
f 471/6/5 467/6/5 466/6/5
f 472/6/5 468/6/5 471/6/5
f 474/5/5 465/5/5 470/5/5
f 475/5/5 465/5/5 474/5/5
f 478/5/5 474/5/5 473/5/5
f 478/5/5 475/5/5 474/5/5
f 479/5/5 475/5/5 478/5/5
f 480/5/5 477/5/5 476/5/5
f 481/5/5 477/5/5 480/5/5
f 482/5/5 478/5/5 473/5/5
f 483/5/5 478/5/5 482/5/5
f 486/5/5 477/5/5 481/5/5
f 487/5/5 477/5/5 486/5/5
f 488/5/5 485/5/5 484/5/5
f 489/5/5 485/5/5 488/5/5
f 496/4/5 491/4/5 490/4/5
f 497/4/5 491/4/5 496/4/5
f 498/4/5 493/4/5 492/4/5
f 499/4/5 493/4/5 498/4/5
f 500/4/5 495/4/5 494/4/5
f 501/4/5 495/4/5 500/4/5
f 507/5/5 503/5/5 502/5/5
f 508/5/5 503/5/5 507/5/5
f 509/5/5 505/5/5 504/5/5
f 510/6/5 506/6/5 505/6/5
f 510/5/5 505/5/5 509/5/5
f 511/6/5 506/6/5 510/6/5
f 518/4/5 513/4/5 512/4/5
f 519/4/5 513/4/5 518/4/5
f 520/4/5 513/4/5 519/4/5
f 521/4/5 515/4/5 514/4/5
f 522/4/5 515/4/5 521/4/5
f 526/4/5 517/4/5 516/4/5
f 527/4/5 517/4/5 526/4/5
f 528/6/5 524/6/5 523/6/5
f 529/6/5 524/6/5 528/6/5
f 531/5/5 526/5/5 525/5/5
f 532/5/5 526/5/5 531/5/5
f 533/6/5 530/6/5 529/6/5
f 534/6/5 530/6/5 533/6/5
f 537/6/5 536/6/5 535/6/5
f 538/6/5 536/6/5 537/6/5
f 539/5/6 540/5/6 543/5/6
f 543/5/6 540/5/6 544/5/6
f 541/5/6 542/5/6 545/5/6
f 545/5/6 542/5/6 546/5/6
f 547/5/6 548/5/6 551/5/6
f 551/5/6 548/5/6 552/5/6
f 549/5/6 550/5/6 553/5/6
f 553/5/6 550/5/6 554/5/6
f 555/4/6 556/4/6 560/4/6
f 560/4/6 556/4/6 561/4/6
f 557/6/6 558/6/6 562/6/6
f 562/6/6 558/6/6 563/6/6
f 559/4/6 560/4/6 566/4/6
f 566/4/6 560/4/6 567/4/6
f 563/6/6 564/6/6 568/6/6
f 568/6/6 564/6/6 569/6/6
f 565/5/6 566/5/6 571/5/6
f 571/5/6 566/5/6 572/5/6
f 569/6/6 570/6/6 574/6/6
f 574/6/6 570/6/6 575/6/6
f 572/5/6 573/5/6 576/5/6
f 576/5/6 573/5/6 577/5/6
f 578/5/6 579/5/6 581/5/6
f 579/5/6 580/5/6 581/5/6
f 581/5/6 580/5/6 582/5/6
f 583/5/6 584/5/6 589/5/6
f 584/6/6 585/6/6 590/6/6
f 589/5/6 584/5/6 590/5/6
f 590/6/6 585/6/6 591/6/6
f 586/6/6 587/6/6 592/6/6
f 592/6/6 587/6/6 593/6/6
f 588/4/6 589/4/6 595/4/6
f 595/4/6 589/4/6 596/4/6
f 591/6/6 592/6/6 597/6/6
f 597/6/6 592/6/6 598/6/6
f 594/5/6 595/5/6 600/5/6
f 600/5/6 595/5/6 601/5/6
f 598/6/6 599/6/6 605/6/6
f 605/6/6 599/6/6 606/6/6
f 602/5/6 603/5/6 607/5/6
f 607/5/6 603/5/6 608/5/6
f 604/6/6 605/6/6 610/6/6
f 610/6/6 605/6/6 611/6/6
f 608/5/6 609/5/6 612/5/6
f 609/6/6 610/6/6 613/6/6
f 612/5/6 609/5/6 613/5/6
f 613/6/6 610/6/6 614/6/6
f 615/5/6 616/5/6 619/5/6
f 619/5/6 616/5/6 620/5/6
f 616/6/6 617/6/6 621/6/6
f 620/5/6 616/5/6 621/5/6
f 621/6/6 617/6/6 622/6/6
f 618/5/6 619/5/6 624/5/6
f 624/5/6 619/5/6 625/5/6
f 622/6/6 623/6/6 627/6/6
f 627/6/6 623/6/6 628/6/6
f 625/5/6 626/5/6 629/5/6
f 626/6/6 627/6/6 630/6/6
f 629/5/6 626/5/6 630/5/6
f 630/6/6 627/6/6 631/6/6
f 632/5/6 633/5/6 635/5/6
f 633/6/6 634/6/6 635/6/6
f 635/6/6 634/6/6 636/6/6
f 632/5/6 635/5/6 637/5/6
f 635/5/6 636/5/6 637/5/6
f 636/6/6 634/6/6 638/6/6
f 637/5/6 636/5/6 638/5/6
f 638/6/6 634/6/6 639/6/6
